<svg xmlns="http://www.w3.org/2000/svg" width="1000" height="1000" viewBox="0 0 1000 1000" version="1.1">
	<path d="M 475.500 20.073 C 408.602 24.102, 350.847 39.283, 293.196 67.991 C 200 114.399, 124.189 190.496, 78.493 283.500 C 52.616 336.169, 38.935 384.526, 32.377 446.500 C 29.801 470.839, 30.024 514.639, 32.854 540.251 C 41.280 616.524, 65.960 685.112, 107.767 748.440 C 124.975 774.507, 139.741 792.585, 164.291 817.644 C 241.939 896.900, 344.530 946.432, 456 958.483 C 593.924 973.394, 737.555 918.151, 836.340 812.199 C 872.680 773.221, 903.485 727.052, 923.465 681.617 C 971.439 572.527, 977.069 452.447, 939.504 339.500 C 913.163 260.297, 866.065 189.248, 803.267 133.979 C 774.348 108.527, 740.688 85.856, 706.158 68.572 C 648.875 39.899, 587.681 23.774, 522 20.045 C 501.748 18.895, 494.994 18.899, 475.500 20.073 M 475 46.633 C 420.759 50.633, 372.986 61.891, 326.386 81.654 C 213.889 129.363, 126.273 221.801, 83.621 337.781 C 72.106 369.093, 63.793 403.937, 59.473 439 C 56.899 459.893, 56.353 508.973, 58.450 531 C 68.056 631.934, 111.358 726.421, 180.965 798.336 C 247.212 866.780, 336.839 913.678, 431.500 929.428 C 487.942 938.820, 547.826 936.394, 602.294 922.509 C 635.014 914.167, 656.863 906.064, 688.500 890.538 C 720.648 874.761, 744.153 859.806, 772.488 837.104 C 849.228 775.620, 904.872 686.255, 926.484 589.781 C 934.591 553.592, 937.315 528.863, 937.364 491 C 937.399 463.638, 936.754 453.342, 933.468 428.859 C 926.372 375.979, 908.043 321.082, 881.543 273.337 C 871.374 255.015, 851.708 225.735, 838.330 209 C 825.754 193.269, 799.252 165.839, 783.500 152.253 C 716.389 94.367, 633.176 58.233, 544.436 48.441 C 531.012 46.960, 486.335 45.796, 475 46.633 M 494.470 83.217 C 494.191 83.944, 494.084 95.331, 494.231 108.520 L 494.500 132.500 499.750 132.802 L 505 133.105 505.179 110.052 C 505.277 97.374, 505.389 85.987, 505.429 84.750 C 505.493 82.729, 504.964 82.469, 500.239 82.197 C 496.572 81.986, 494.824 82.296, 494.470 83.217 M 426.197 88.482 C 417.230 90.292, 409.695 91.971, 409.453 92.214 C 408.915 92.751, 418.494 140.828, 419.299 141.632 C 419.613 141.946, 428.111 140.645, 438.185 138.742 L 456.500 135.281 456.177 131.400 C 455.999 129.266, 455.675 127.342, 455.457 127.124 C 455.239 126.906, 449.666 127.744, 443.072 128.987 C 436.478 130.229, 430.456 131.005, 429.691 130.712 C 428.390 130.213, 425.681 120.009, 426.602 119.072 C 426.833 118.837, 432.079 117.687, 438.261 116.516 L 449.500 114.388 449.383 110.660 C 449.319 108.610, 449.003 106.670, 448.682 106.349 C 448.361 106.027, 443.013 106.722, 436.799 107.892 C 430.585 109.061, 425.213 110.014, 424.861 110.009 C 424.510 110.004, 423.917 108.313, 423.543 106.250 C 423.169 104.188, 422.633 101.538, 422.352 100.363 C 421.870 98.353, 422.574 98.092, 434.170 95.974 C 440.951 94.735, 446.894 93.368, 447.375 92.935 C 447.857 92.503, 447.949 90.541, 447.580 88.575 C 446.756 84.185, 447.469 84.188, 426.197 88.482 M 554.482 87.250 C 553.722 89.338, 544.909 128.245, 544.324 132.096 L 543.778 135.691 548.970 136.718 C 552.735 137.462, 554.267 137.436, 554.548 136.622 C 554.761 136.005, 556.350 129.200, 558.080 121.500 C 559.809 113.800, 561.579 107.117, 562.013 106.649 C 563.009 105.575, 563.222 106.334, 567.026 124.500 C 568.753 132.750, 570.467 139.779, 570.833 140.121 C 571.200 140.462, 572.672 141.017, 574.104 141.353 C 576.500 141.916, 577.614 140.791, 588.036 127.277 C 594.266 119.199, 599.525 113.076, 599.724 113.672 C 599.923 114.268, 598.325 121.755, 596.173 130.309 L 592.261 145.863 597.184 147.044 C 599.892 147.694, 602.354 147.979, 602.654 147.679 C 603.843 146.490, 615.042 99.647, 614.296 98.982 C 613.303 98.096, 604.786 96, 602.178 96 C 600.905 96, 597.372 99.665, 591.871 106.690 C 581.038 120.524, 578.297 123.631, 577.569 122.902 C 577.241 122.574, 575.267 114.700, 573.183 105.403 L 569.394 88.500 564.447 87.346 C 557.760 85.786, 555.025 85.760, 554.482 87.250 M 356.742 107.202 C 354.134 108.331, 352 109.862, 352 110.605 C 352 111.347, 354.766 117.927, 358.147 125.227 C 364.526 138.999, 366.059 145.152, 364.050 148.907 C 362.220 152.325, 357.009 154.992, 352.151 154.996 C 346.088 155.001, 343.764 152.149, 336.584 135.894 C 333.330 128.527, 330.126 121.899, 329.462 121.164 C 328.465 120.059, 327.502 120.209, 323.878 122.037 C 321.470 123.252, 319.362 124.366, 319.194 124.513 C 319.025 124.659, 322.105 131.917, 326.037 140.640 C 335.558 161.759, 339.093 165.364, 350.180 165.263 C 364.687 165.130, 378.228 152.979, 376.656 141.506 C 376.232 138.416, 363.405 107.541, 361.624 105.325 C 361.547 105.229, 359.350 106.074, 356.742 107.202 M 657.898 122.263 C 653.272 125.344, 650.592 130.992, 651.477 135.793 C 652.022 138.751, 653.963 141.229, 661.080 148.053 C 670.729 157.306, 671.808 159.770, 667.455 162.622 C 662.302 165.998, 652.793 160.743, 651.490 153.799 C 650.940 150.869, 650.205 150.137, 646.386 148.721 L 641.925 147.068 640.962 149.599 C 639.568 153.266, 639.749 154.851, 642.124 159.757 C 646.102 167.973, 661.158 175.098, 670.233 173.059 C 675.325 171.915, 679.739 167.685, 681.095 162.648 C 682.855 156.111, 680.248 151.050, 671.365 143.760 C 663.330 137.164, 661.695 134.100, 664.536 130.960 C 666.694 128.576, 670.065 128.462, 674.615 130.622 C 678.519 132.474, 679.086 133.186, 679.925 137.289 C 680.409 139.653, 681.439 140.610, 685.016 142.017 C 687.482 142.988, 689.837 143.579, 690.250 143.332 C 691.741 142.437, 690.961 134.449, 689.081 131.366 C 683.041 121.460, 666.398 116.602, 657.898 122.263 M 476.500 166.071 C 432.736 169.179, 388.156 182.187, 349.500 203.127 C 257.114 253.174, 195.493 343.243, 181.468 448.738 C 167.900 550.794, 203.960 654.614, 277.836 726.190 C 321.193 768.197, 370.740 795.801, 428.087 809.900 C 469.838 820.165, 516.879 821.421, 558.355 813.379 C 686.010 788.628, 787.671 685.716, 812.977 555.626 C 817.629 531.715, 818.435 522.516, 818.468 493 C 818.493 470.859, 818.093 461.488, 816.674 451 C 808.500 390.563, 787.723 338.608, 753.372 292.705 C 688.578 206.120, 584.277 158.415, 476.500 166.071 M 236.400 193.400 C 233.549 196.251, 233 197.520, 233 201.265 C 233 206.854, 235.698 210.530, 240.956 212.105 C 244.236 213.088, 245.374 212.980, 248.652 211.379 C 260.146 205.766, 256.460 190.016, 243.650 190.004 C 240.602 190.001, 239.092 190.708, 236.400 193.400 M 749.400 193.400 C 746.549 196.251, 746 197.520, 746 201.265 C 746 216.031, 767.877 216.337, 768.295 201.577 C 768.491 194.652, 763.732 190, 756.450 190 C 753.632 190, 752.025 190.775, 749.400 193.400 M 493.515 224.250 C 490.336 232.637, 487.232 239.831, 486.618 240.235 C 486.003 240.639, 482.125 241.021, 478 241.084 C 473.875 241.147, 466.692 241.491, 462.038 241.849 L 453.577 242.500 466.288 253.308 C 473.280 259.252, 478.989 264.652, 478.976 265.308 C 478.963 265.963, 477.213 273.363, 475.089 281.750 C 472.812 290.735, 471.661 297, 472.286 297 C 472.869 297, 479.321 293.147, 486.624 288.438 C 498.239 280.948, 500.166 280.019, 502.019 281.010 C 503.184 281.634, 509.329 285.514, 515.674 289.634 C 522.018 293.753, 527.481 296.853, 527.812 296.521 C 528.143 296.190, 526.737 289.075, 524.686 280.709 C 522.635 272.344, 520.967 265.197, 520.979 264.827 C 520.990 264.457, 526.731 259.282, 533.735 253.327 L 546.469 242.500 537.985 241.849 C 533.318 241.491, 526.274 241.154, 522.332 241.099 C 518.389 241.045, 514.502 240.746, 513.694 240.436 C 512.886 240.126, 509.587 232.926, 506.363 224.436 C 503.140 215.946, 500.231 209, 499.899 209 C 499.567 209, 496.694 215.863, 493.515 224.250 M 488.786 310.314 L 479.073 316.500 478.786 332 L 478.500 347.500 471.500 348 L 464.500 348.500 463.804 358.500 C 463.421 364, 462.385 381.100, 461.502 396.500 C 459.717 427.626, 457.067 462.944, 453.948 497.149 L 451.883 519.798 457.819 531.649 C 473.915 563.787, 485.649 599.952, 494.029 643.250 C 494.641 646.413, 495.335 649, 495.571 649 C 495.807 649, 496 622.912, 496 591.026 L 496 533.051 492.956 531.477 C 488.768 529.312, 486.008 524.420, 486.004 519.154 C 485.999 513.794, 488.321 509.681, 492.674 507.337 L 495.988 505.552 496.244 427.526 L 496.500 349.500 500.250 349.190 L 504 348.879 504 426.973 L 504 505.067 507.537 507.154 C 511.926 509.744, 514.001 513.613, 513.996 519.200 C 513.992 524.417, 511.216 529.320, 507.044 531.477 L 504 533.051 504.105 591.276 C 504.194 640.920, 504.404 648.911, 505.528 645.500 C 506.253 643.300, 506.881 640.649, 506.923 639.608 C 507.095 635.366, 517.295 596.225, 522.093 581.395 C 527.730 563.970, 536.637 542.318, 543.709 528.848 L 548.252 520.195 546.098 496.348 C 544.913 483.231, 543.513 467.550, 542.987 461.500 C 541.601 445.550, 539.297 410.727, 537.464 378 C 536.586 362.325, 535.560 349.186, 535.184 348.803 C 534.808 348.419, 531.575 347.969, 528 347.803 L 521.500 347.500 521.214 332 L 520.927 316.500 510.969 310.250 C 505.492 306.813, 500.446 304.029, 499.756 304.064 C 499.065 304.099, 494.129 306.912, 488.786 310.314 M 841.035 311.306 C 836.291 312.940, 832.663 318.409, 833.373 322.856 C 834.828 331.972, 842.466 335.850, 850.835 331.723 C 856.012 329.169, 857.642 320.357, 853.832 315.514 C 852.114 313.330, 846.212 309.770, 844.782 310.056 C 844.627 310.087, 842.941 310.650, 841.035 311.306 M 144.400 314.400 C 141.708 317.092, 141.001 318.602, 141.004 321.650 C 141.012 330.632, 149.090 336.077, 156.809 332.304 C 167.952 326.857, 164.570 311, 152.265 311 C 148.520 311, 147.251 311.549, 144.400 314.400 M 357.020 440.750 L 357.040 568.500 375.770 577.688 C 397.008 588.107, 413.494 598.536, 429.500 611.677 C 440.446 620.665, 453.327 633.455, 460 641.962 C 463.877 646.905, 463.685 646.836, 453 639.440 C 423.700 619.158, 380.945 598.541, 348.500 589.048 L 335.500 585.245 335.245 481.122 C 334.963 365.578, 334.346 375.447, 341.654 378.500 C 348.003 381.153, 348 381.157, 348 368.964 L 348 357.929 343.250 355.890 C 335.264 352.461, 315.186 346, 312.517 346 L 310 346 310 478.355 L 310 610.709 320.750 611.946 C 360.881 616.563, 399.821 627.066, 435.972 643.023 C 451.840 650.027, 463.251 656.358, 477.487 666.055 C 482.980 669.797, 487.608 672.725, 487.772 672.561 C 488.371 671.962, 481.140 657.162, 474.162 644.708 C 452.083 605.301, 424.753 575.796, 392.821 556.894 L 384 551.673 384 457.836 C 384 392.594, 384.322 364, 385.057 364 C 386.754 364, 403.051 370.946, 407.577 373.598 C 413.888 377.297, 419.001 382.775, 421.889 388.933 L 424.500 394.500 424.784 473.546 L 425.068 552.593 430.712 559.046 C 449.870 580.952, 468.169 610.680, 481.626 641.756 C 487.232 654.704, 488.339 653.770, 484.483 639.345 C 474.530 602.108, 463.108 575.099, 446.997 550.704 L 440 540.111 440 469.684 L 440 399.256 437.587 389.745 C 431.652 366.347, 421.807 351.674, 403.692 339.228 C 396.429 334.238, 359.264 313, 357.794 313 C 357.357 313, 357.009 370.487, 357.020 440.750 M 624.500 322.139 C 593.971 339.282, 586.151 344.934, 577.894 355.822 C 571.914 363.707, 566.002 375.558, 562.839 386 C 560.588 393.429, 560.562 394.193, 560.033 467.038 L 559.500 540.576 552.639 551.038 C 544.892 562.849, 531.968 588.751, 526.709 603.003 C 521.178 617.992, 511.473 652.806, 512.531 653.864 C 512.787 654.121, 514.685 650.544, 516.749 645.915 C 523.539 630.684, 537.527 603.681, 543.993 593.324 C 551.020 582.069, 561.709 567.518, 569.721 558.302 L 574.942 552.296 575.227 473.398 C 575.493 399.802, 575.635 394.183, 577.338 389.787 C 579.348 384.596, 584.868 378.366, 590.716 374.688 C 595.358 371.769, 612.737 364, 614.626 364 C 615.782 364, 615.996 378.902, 615.976 457.750 L 615.952 551.500 606.995 556.782 C 583.735 570.499, 560.174 592.813, 541.830 618.500 C 531.289 633.261, 510.777 671.092, 512.927 671.809 C 513.485 671.995, 515.417 671.032, 517.220 669.670 C 528.657 661.033, 550.270 649.016, 568.500 641.159 C 602.253 626.611, 636.995 617.369, 676.151 612.521 C 682.739 611.706, 688.483 610.819, 688.916 610.552 C 689.350 610.284, 689.776 550.863, 689.864 478.506 C 690.005 362.646, 689.846 346.878, 688.531 346.373 C 686.641 345.648, 671.805 349.878, 660.868 354.259 L 652.500 357.611 652.213 367.969 C 652.055 373.665, 652.312 378.712, 652.783 379.183 C 653.257 379.657, 655.557 379.362, 657.945 378.519 C 660.314 377.684, 662.647 377, 663.130 377 C 663.632 377, 663.900 421.769, 663.755 481.178 L 663.500 585.355 651 588.989 C 620.653 597.810, 580.366 617.034, 550.500 636.945 C 536.771 646.097, 537.564 645.686, 539.060 642.871 C 539.752 641.567, 546.435 634.417, 553.909 626.982 C 575.120 605.885, 593.215 593.139, 623.485 577.974 L 642.500 568.448 642.754 440.724 C 642.956 338.837, 642.754 313.016, 641.754 313.077 C 641.064 313.120, 633.300 317.197, 624.500 322.139 M 874 421.879 C 859.743 424.456, 859.495 424.545, 859.188 427.201 C 858.625 432.080, 860.313 433.466, 870.470 436.465 C 875.748 438.024, 880.251 439.597, 880.476 439.962 C 880.702 440.326, 876.637 443.394, 871.443 446.779 C 862.136 452.845, 862 452.991, 862 456.908 C 862 459.094, 862.376 461.114, 862.836 461.399 C 863.296 461.683, 870.946 460.939, 879.836 459.746 L 896 457.577 896 454.289 C 896 450.376, 895.039 450.250, 882.500 452.515 C 878.100 453.310, 874.388 453.970, 874.250 453.980 C 874.112 453.991, 874 453.608, 874 453.130 C 874 452.651, 878.050 449.692, 883 446.554 C 894.853 439.040, 894.876 437.918, 883.250 434.467 C 878.438 433.039, 873.938 431.689, 873.250 431.467 C 869.939 430.397, 872.896 429.145, 882.080 427.728 C 887.624 426.873, 892.295 426.022, 892.461 425.837 C 892.627 425.652, 892.540 424.038, 892.268 422.250 C 891.685 418.422, 892.976 418.448, 874 421.879 M 105.793 422.555 C 105.212 423.830, 104.975 425.493, 105.266 426.252 C 105.930 427.982, 135.889 433.511, 137.246 432.154 C 137.747 431.653, 138.009 429.955, 137.828 428.381 C 137.529 425.773, 137.053 425.452, 132.500 424.785 C 129.750 424.382, 122.853 423.194, 117.174 422.145 L 106.849 420.238 105.793 422.555 M 101.436 455.306 C 101.103 456.174, 100.986 457.697, 101.175 458.692 C 101.468 460.227, 103.076 460.630, 111.846 461.364 C 119.555 462.009, 121.884 462.516, 121.037 463.364 C 120.412 463.989, 115.536 467.425, 110.201 471 C 101.727 476.678, 100.461 477.897, 100.195 480.641 L 99.890 483.782 107.695 484.377 C 111.988 484.704, 119.438 485.256, 124.250 485.604 L 133 486.237 133 482.712 L 133 479.187 123.250 478.521 C 117.888 478.155, 113.052 477.739, 112.504 477.596 C 111.956 477.453, 116.558 473.998, 122.730 469.918 C 133.032 463.108, 133.953 462.243, 133.976 459.365 C 133.999 456.321, 133.848 456.213, 128.750 455.637 C 125.862 455.311, 118.672 454.748, 112.770 454.387 C 103.527 453.821, 101.957 453.948, 101.436 455.306 M 862.604 494.527 C 862.225 500.867, 862.186 506.492, 862.517 507.027 C 862.867 507.593, 869.929 508, 879.412 508 L 895.707 508 896.353 500.349 C 896.709 496.141, 897 490.741, 897 488.349 C 897 484.213, 896.857 484, 894.090 484 L 891.180 484 890.471 492.500 L 889.763 501 885.882 501 L 882 501 882 493 C 882 485.229, 881.932 485, 879.607 485 C 876.594 485, 876 486.577, 876 494.582 L 876 501 872.500 501 C 870.404 501, 868.972 500.498, 868.929 499.750 C 868.891 499.063, 868.919 495.012, 868.993 490.750 L 869.127 483 866.210 483 L 863.294 483 862.604 494.527 M 127.815 505.518 C 127.530 505.803, 127.508 508.230, 127.765 510.910 L 128.234 515.785 124.367 516.360 C 122.240 516.677, 116.900 517.211, 112.500 517.547 C 101.539 518.385, 101 518.598, 101 522.099 C 101 523.729, 101.563 525.268, 102.250 525.518 C 102.938 525.768, 108.900 525.369, 115.500 524.630 C 122.100 523.891, 127.838 523.474, 128.250 523.703 C 128.662 523.931, 129 525.187, 129 526.494 C 129 527.801, 129.417 529.968, 129.928 531.310 C 130.675 533.276, 131.374 533.651, 133.521 533.241 C 136.011 532.765, 136.150 532.459, 135.636 528.616 C 135.334 526.352, 134.806 520.900, 134.464 516.500 C 133.648 506.011, 133.308 505, 130.599 505 C 129.353 505, 128.100 505.233, 127.815 505.518 M 860.580 528.237 C 859.419 533.897, 857 550.378, 857 552.632 C 857 554.766, 857.400 555.086, 859.728 554.816 C 862.097 554.542, 862.553 553.924, 863.199 550.112 C 863.608 547.698, 864.126 545.541, 864.349 545.317 C 864.573 545.094, 870.148 545.831, 876.739 546.955 C 883.330 548.080, 889.409 549, 890.248 549 C 891.810 549, 893.311 543.310, 891.968 542.481 C 891.585 542.243, 885.827 541.176, 879.175 540.108 C 872.522 539.041, 866.680 537.921, 866.193 537.619 C 865.705 537.318, 865.639 534.918, 866.045 532.286 C 866.452 529.654, 866.720 527.451, 866.642 527.391 C 866.564 527.331, 865.273 526.987, 863.772 526.627 C 861.484 526.078, 860.970 526.337, 860.580 528.237 M 120.500 555.208 C 112.800 556.871, 106.390 558.328, 106.255 558.445 C 106.120 558.561, 107.041 563.797, 108.301 570.079 C 110.476 580.914, 110.719 581.500, 113.047 581.500 C 115.199 581.500, 115.490 581.070, 115.422 578 C 115.380 576.075, 114.987 572.160, 114.550 569.300 C 113.778 564.249, 113.831 564.081, 116.376 563.442 C 120.641 562.371, 121.671 563.459, 122.985 570.419 C 124.092 576.287, 124.479 577, 126.554 577 C 129.828 577, 130.031 576.231, 128.745 568.720 C 128.118 565.058, 127.864 561.803, 128.181 561.486 C 128.498 561.169, 130.049 560.818, 131.628 560.705 C 134.453 560.503, 134.525 560.631, 136.049 568.500 C 137.592 576.469, 137.609 576.499, 140.541 576.174 C 142.160 575.995, 143.565 575.768, 143.664 575.670 C 143.830 575.503, 140.661 559.239, 139.490 554.250 C 138.819 551.389, 137.978 551.432, 120.500 555.208 M 854.117 575.631 C 850.940 577.856, 849 582.930, 849 589.013 C 849 595.318, 852.035 599, 857.232 599 C 861.738 599, 864.518 596.824, 868.084 590.506 C 871.172 585.033, 872.913 583.645, 875.462 584.624 C 879.175 586.048, 878.273 592.859, 873.920 596.265 C 870.213 599.167, 869.578 603.361, 872.777 603.820 C 876.388 604.337, 881.512 598.502, 882.826 592.376 C 884.855 582.917, 881.407 577, 873.866 577 C 869.821 577, 867.118 579.460, 862.885 586.991 C 859.419 593.159, 855 593.654, 855 587.875 C 855 584.127, 856.608 581, 858.535 581 C 859.543 581, 860 579.907, 860 577.500 C 860 573.495, 858.051 572.875, 854.117 575.631 M 133 602.500 C 119.625 607.365, 118.522 607.955, 118.779 610.116 C 119.243 614.020, 120.567 614.520, 125.911 612.811 C 134.131 610.183, 135.367 613.766, 129 621.763 C 124.668 627.204, 124.391 628.273, 126.384 631.869 C 127.694 634.232, 127.707 634.225, 132.065 628.645 C 136.373 623.129, 136.465 623.075, 138.889 624.663 C 140.240 625.548, 143.151 626.273, 145.356 626.273 C 148.593 626.273, 149.910 625.665, 152.184 623.121 C 154.019 621.067, 155 618.862, 155 616.794 C 155 612.590, 149.875 596.969, 148.544 597.113 C 147.970 597.176, 140.975 599.600, 133 602.500 M 140.648 607.185 C 138.130 608.112, 137.869 608.594, 138.413 611.315 C 139.424 616.372, 141.770 619.163, 144.712 618.810 C 148.704 618.331, 149.724 615.826, 147.978 610.787 C 146.385 606.191, 145.084 605.552, 140.648 607.185 M 840.093 615.827 C 838.172 619.415, 838.898 622.101, 843.167 627.199 C 847.935 632.895, 847.658 633.437, 839.458 634.462 C 833.265 635.236, 831.354 636.489, 830.410 640.395 C 829.764 643.067, 829.894 643.246, 832.105 642.717 C 833.422 642.403, 838.342 641.395, 843.037 640.478 L 851.574 638.811 857.979 641.413 C 861.502 642.845, 864.716 643.675, 865.121 643.258 C 865.527 642.841, 866.150 641.320, 866.506 639.878 C 867.102 637.461, 866.769 637.118, 862.254 635.494 C 855.871 633.199, 855.530 632.899, 848.609 623.500 C 840.957 613.108, 841.356 613.467, 840.093 615.827 M 152.005 649.597 C 144.583 653.652, 138.366 657.402, 138.190 657.929 C 137.743 659.271, 139.861 663, 141.070 663 C 141.620 663, 145.696 660.942, 150.128 658.427 C 154.561 655.912, 158.453 654.120, 158.778 654.444 C 159.102 654.769, 156.824 660.251, 153.715 666.626 C 148.264 677.804, 148.115 678.322, 149.556 681.109 C 150.379 682.699, 151.224 684, 151.435 684 C 152.121 684, 180 668.829, 180 668.456 C 180 667.412, 177.584 663, 177.013 663 C 176.647 663, 172.591 665.025, 168 667.500 C 163.409 669.975, 159.305 672, 158.880 672 C 158.455 672, 160.554 666.938, 163.545 660.750 C 166.535 654.563, 168.986 648.762, 168.991 647.861 C 168.996 646.959, 168.213 645.322, 167.250 644.223 C 165.520 642.248, 165.346 642.309, 152.005 649.597 M 818.490 665.310 C 814.402 669.398, 812.418 675.892, 813.931 680.232 C 815.357 684.324, 817.730 685.930, 822.401 685.968 C 825.826 685.996, 826.965 685.327, 831.716 680.500 C 834.693 677.475, 837.517 675, 837.993 675 C 840.109 675, 841.981 678.231, 841.367 680.822 C 840.615 683.992, 838.204 687, 836.416 687 C 834.509 687, 832 689.882, 832 692.071 C 832 695.886, 839.806 693.879, 843.767 689.046 C 846.038 686.274, 848 680.830, 848 677.301 C 848 672.578, 843.468 668, 838.793 668 C 836.044 668, 834.443 669.002, 830 673.500 C 827.013 676.525, 823.781 679, 822.819 679 C 817.721 679, 819.431 670.091, 824.895 668.186 C 827.274 667.357, 828 666.508, 828 664.552 C 828 660.585, 822.800 661, 818.490 665.310 M 183.747 691.984 C 180.137 694.824, 179.592 698.375, 181.588 706.070 C 183.565 713.694, 183.101 716, 179.588 716 C 176.283 716, 174 712.518, 174 707.477 C 174 701.170, 170.360 698.720, 168.161 703.547 C 165.632 709.095, 167.400 714.510, 173.484 719.852 C 176.231 722.263, 178.008 723, 181.080 723 C 188.954 723, 192.310 715.465, 188.500 706.346 C 185.716 699.682, 186.824 696.237, 191.385 697.382 C 194.133 698.072, 196.226 702.249, 195.425 705.444 C 194.993 707.162, 195.452 708.203, 197.169 709.406 C 199.333 710.921, 199.589 710.916, 200.750 709.328 C 203.851 705.086, 200.881 696.264, 195.001 692.250 C 190.932 689.473, 187.056 689.381, 183.747 691.984 M 589.500 691.890 C 583.126 694.832, 580.738 698.108, 580.195 704.659 C 579.366 714.654, 583.094 718.537, 597.689 722.881 C 605.583 725.230, 608 726.988, 608 730.380 C 608 734.146, 605.719 736.169, 600.939 736.643 C 595.643 737.168, 592.009 735.503, 590.195 731.721 C 589.034 729.299, 588.344 729, 583.914 729 C 577.676 729, 576.995 730.401, 580.143 736.749 C 584.147 744.821, 594.297 748.415, 606.007 745.907 C 619.289 743.062, 624.491 728.558, 615.467 719.533 C 612.974 717.041, 609.759 715.381, 603.765 713.492 C 591.027 709.477, 588.943 707.382, 592.557 702.223 C 593.806 700.439, 595.083 700, 599.027 700 C 603.326 700, 604.217 700.375, 606.158 703 C 608.102 705.630, 608.986 706, 613.319 706 L 618.262 706 617.677 702.394 C 616.838 697.228, 614.449 694.107, 609.672 691.938 C 604.191 689.450, 594.836 689.427, 589.500 691.890 M 384 711.032 C 384 736.052, 385.043 739.356, 394.500 744.307 C 400.130 747.254, 411.821 747.194, 417.666 744.188 C 426.470 739.660, 427.987 734.601, 427.994 709.750 L 428 691 422 691 L 416 691 416 709.550 C 416 729.164, 415.314 732.691, 411.055 734.970 C 406.459 737.430, 399 735.490, 397.110 731.343 C 396.421 729.831, 396 721.713, 396 709.953 L 396 691 390 691 L 384 691 384 711.032 M 440 718.500 L 440 746 458 746 L 476 746 476 741 L 476 736 463.500 736 L 451 736 451 729.533 L 451 723.066 462.250 722.783 L 473.500 722.500 473.500 718 L 473.500 713.500 462.250 713.217 L 451 712.934 451 706.998 L 451 701.062 463.250 700.781 L 475.500 700.500 475.805 695.750 L 476.110 691 458.055 691 L 440 691 440 718.500 M 486 718.550 L 486 746.100 491.750 745.800 L 497.500 745.500 497.766 718.250 L 498.032 691 492.016 691 L 486 691 486 718.550 M 510 718.552 L 510 746.105 515.167 745.802 L 520.335 745.500 520.192 732.500 C 520.113 725.350, 520.377 717.739, 520.777 715.587 C 521.491 711.754, 521.645 712.024, 528.368 728.889 L 535.231 746.104 539.234 745.802 L 543.237 745.500 550.369 727.567 L 557.500 709.634 557.773 727.817 L 558.045 746 563.523 746 L 569 746 569 718.500 L 569 691 561.500 691 C 557.375 691, 554 691.118, 554 691.263 C 554 691.408, 550.662 699.807, 546.583 709.929 L 539.165 728.332 537.741 724.916 C 536.957 723.037, 533.657 714.639, 530.408 706.253 L 524.500 691.007 517.250 691.003 L 510 691 510 718.552 M 778.131 725.103 C 774.079 730.046, 770.704 734.796, 770.631 735.657 C 770.559 736.518, 771.311 737.735, 772.301 738.362 C 773.814 739.318, 774.535 738.978, 776.801 736.241 C 778.286 734.449, 779.963 732.986, 780.529 732.991 C 781.094 732.996, 785.819 736.595, 791.029 740.989 C 796.238 745.384, 800.954 748.984, 801.509 748.989 C 802.065 748.995, 803.133 748.016, 803.884 746.814 C 805.381 744.418, 804.577 743.489, 790.618 731.500 L 784.796 726.500 787.902 722.607 C 790.303 719.598, 790.752 718.407, 789.882 717.357 C 787.690 714.717, 785.419 716.213, 778.131 725.103 M 213 728.210 C 210.525 730.497, 205.183 735.462, 201.129 739.241 L 193.758 746.114 196.040 748.543 L 198.322 750.972 203.251 746.362 L 208.179 741.752 213.090 746.588 C 215.790 749.248, 218 752.092, 218 752.908 C 218 753.724, 215.863 756.277, 213.250 758.580 C 208.524 762.748, 208.509 762.779, 210.405 764.884 C 211.453 766.048, 212.803 766.982, 213.405 766.960 C 214.007 766.937, 219.825 761.875, 226.333 755.710 L 238.167 744.500 235.809 742.288 L 233.452 740.076 228.653 744.178 L 223.854 748.281 218.927 743.428 C 216.217 740.759, 213.996 738.108, 213.992 737.538 C 213.987 736.967, 216.032 734.700, 218.536 732.500 C 222.929 728.641, 223.033 728.421, 221.488 726.250 C 219.289 723.160, 218.189 723.413, 213 728.210 M 754.272 752.172 L 752.086 754.358 759.043 761.682 C 766.012 769.018, 767.524 771.607, 764.250 770.593 C 763.288 770.295, 757.602 768.899, 751.616 767.492 C 741.130 765.026, 740.654 764.998, 738.616 766.716 C 737.452 767.697, 736.200 768.916, 735.833 769.424 C 735.103 770.436, 755.823 793.743, 757.595 793.902 C 758.197 793.956, 759.505 793.100, 760.500 792 C 762.591 789.690, 762.632 789.760, 753.595 780.275 C 750.857 777.401, 748.919 774.747, 749.289 774.378 C 749.658 774.009, 755.581 774.828, 762.450 776.200 L 774.940 778.693 776.970 776.532 C 778.086 775.344, 779 774.087, 779 773.740 C 779 773.010, 758.186 750.629, 757.149 750.243 C 756.769 750.102, 755.475 750.970, 754.272 752.172 M 242.765 773.067 C 237.119 779.703, 232.371 785.491, 232.213 785.927 C 232.055 786.364, 233.063 787.466, 234.452 788.376 C 237.337 790.267, 236.484 791.010, 251.398 773.592 C 258.627 765.149, 258.938 764.588, 257.357 762.842 C 256.440 761.829, 255.092 761, 254.360 761 C 253.629 761, 248.411 766.430, 242.765 773.067 M 266.664 792.451 C 261.349 799.802, 257 806.293, 257 806.874 C 257 807.454, 257.984 808.456, 259.186 809.099 C 261.470 810.322, 262.883 809.263, 267 803.240 L 268.500 801.046 273.954 804.523 C 281.721 809.475, 286.822 808.852, 291.054 802.433 C 293.348 798.952, 293.535 794.935, 291.577 791.149 C 290.426 788.923, 282.930 782.866, 277.414 779.707 C 276.794 779.352, 272.177 784.826, 266.664 792.451 M 708.577 789.583 C 703.777 793.204, 700.053 796.691, 700.302 797.333 C 700.550 797.975, 704.446 803.675, 708.959 810 C 713.472 816.325, 717.515 822.120, 717.944 822.877 C 718.453 823.779, 719.222 823.952, 720.170 823.377 C 724.178 820.948, 738 810.562, 738 809.980 C 738 809.611, 737.126 808.519, 736.058 807.552 C 734.184 805.857, 733.895 805.964, 727.904 810.574 L 721.693 815.353 719.352 812.426 C 718.064 810.817, 717.008 809.217, 717.005 808.870 C 717.002 808.524, 719.501 806.352, 722.558 804.044 C 728.139 799.830, 728.726 798.492, 725.802 796.647 C 724.603 795.891, 722.995 796.534, 719.110 799.326 C 716.297 801.347, 713.598 803, 713.113 803 C 712.158 803, 708.986 798.570, 709.022 797.285 C 709.033 796.853, 711.548 794.705, 714.610 792.511 C 717.672 790.317, 720.378 788.197, 720.623 787.801 C 721.119 786.998, 718.862 783, 717.912 783 C 717.578 783, 713.378 785.962, 708.577 789.583 M 275.585 791.300 C 274.163 793.164, 273 795.178, 273 795.776 C 273 797.718, 278.882 801.147, 281.647 800.817 C 287.427 800.126, 287.240 793.600, 281.335 789.896 L 278.170 787.911 275.585 791.300 M 677.210 810.013 L 673.920 812.019 674.607 823.510 C 674.984 829.829, 674.973 835, 674.580 835 C 674.188 835, 669.959 831.855, 665.183 828.010 C 660.408 824.166, 656.275 821.018, 656 821.014 C 655.725 821.010, 654.016 821.912, 652.202 823.018 L 648.904 825.029 655.968 838.764 C 665.218 856.751, 664.268 855.456, 667.123 853.968 C 668.430 853.287, 669.641 852.612, 669.812 852.469 C 669.984 852.326, 668.044 848.065, 665.500 843 C 662.956 837.935, 661.100 833.567, 661.374 833.292 C 661.649 833.018, 665.731 836.042, 670.446 840.012 C 677.664 846.090, 679.258 847.031, 680.537 845.969 C 681.755 844.959, 681.942 843.196, 681.479 837.104 C 681.161 832.922, 680.678 828.038, 680.405 826.250 C 679.553 820.662, 681.790 822.624, 686.105 831.250 C 688.375 835.788, 690.384 839.667, 690.570 839.870 C 691.480 840.869, 696 838.761, 696 837.338 C 696 835.636, 681.868 807.999, 681 808.004 C 680.725 808.006, 679.019 808.910, 677.210 810.013 M 340 818.325 C 340 818.505, 337.075 825.350, 333.500 833.538 C 329.925 841.726, 327 848.708, 327 849.052 C 327 849.397, 328.197 850.224, 329.659 850.891 C 332.204 852.050, 333.927 851.247, 333.985 848.875 C 333.993 848.531, 335.688 844.706, 337.750 840.375 L 341.500 832.500 342 843.895 C 342.693 859.689, 343.410 860.028, 353.959 849.541 C 358.348 845.177, 362.239 841.905, 362.604 842.271 C 362.969 842.636, 361.451 847.112, 359.230 852.217 C 355.562 860.649, 355.342 861.617, 356.827 862.779 C 360.069 865.315, 361.482 863.526, 367.722 848.993 C 371.144 841.022, 373.957 834.169, 373.972 833.763 C 373.987 833.358, 372.372 832.347, 370.383 831.516 L 366.766 830.004 361.133 834.901 C 358.035 837.595, 354.409 840.969, 353.076 842.399 C 348.593 847.209, 348 846.133, 348 833.185 L 348 821.370 344.466 819.685 C 340.930 817.999, 340 817.716, 340 818.325 M 618.194 836.528 C 613.075 838.411, 608.477 840.205, 607.977 840.515 C 607.246 840.966, 617.038 871.372, 618.329 872.663 C 618.525 872.858, 623.480 871.365, 629.342 869.346 C 640.020 865.667, 641.299 864.598, 639.124 861.167 C 638.441 860.089, 636.867 860.325, 630.917 862.394 C 626.756 863.841, 623.177 864.577, 622.687 864.087 C 622.209 863.609, 621.747 861.755, 621.659 859.966 C 621.507 856.859, 621.757 856.626, 627.250 854.773 C 632.076 853.145, 633 852.454, 633 850.476 C 633 847.005, 631.713 846.737, 625.813 848.980 C 618.900 851.607, 618.473 851.557, 616.977 847.944 C 615.432 844.215, 615.807 843.829, 623.750 840.977 C 629.831 838.793, 630.652 837.863, 629.393 834.582 C 628.626 832.583, 629.178 832.487, 618.194 836.528 M 399.271 852.750 C 386.170 871.217, 385.617 872.143, 387.124 873.098 C 388.816 874.169, 392.992 874.277, 393.022 873.250 C 393.034 872.837, 393.852 871.451, 394.838 870.169 L 396.632 867.837 402.566 869.518 C 409.133 871.378, 411 873.053, 411 877.084 C 411 879.826, 412.524 881, 416.082 881 C 418.371 881, 418.331 882.073, 416.572 867.958 C 415.786 861.656, 414.858 853.947, 414.509 850.826 C 413.927 845.614, 413.624 845.065, 410.788 844.076 C 409.091 843.484, 407.361 843, 406.945 843 C 406.529 843, 403.076 847.388, 399.271 852.750 M 565.500 850.150 C 555.780 853.712, 551.436 864.759, 555.896 874.579 C 559.326 882.130, 566.670 885.755, 574.835 883.925 C 583.915 881.890, 588.161 877.502, 588.727 869.570 C 589.248 862.262, 588.429 861.474, 581.863 862.961 C 573.078 864.949, 573 864.990, 573 867.560 C 573 869.820, 573.322 869.968, 577.750 869.742 C 581.999 869.526, 582.468 869.711, 582.199 871.500 C 581.231 877.924, 569.743 880.470, 564.661 875.388 C 560.040 870.768, 559.939 862.285, 564.454 858.044 C 567.625 855.064, 574.181 854.234, 577.479 856.394 C 579.826 857.932, 580.177 857.930, 582.568 856.364 L 585.136 854.681 582.612 852.158 C 580.596 850.142, 578.923 849.575, 574.294 849.343 C 571.107 849.182, 567.150 849.546, 565.500 850.150 M 404.024 856.465 C 402.266 859.020, 401.061 861.718, 401.347 862.461 C 401.907 863.922, 407.749 865.585, 408.762 864.572 C 409.633 863.701, 409.021 853.677, 408.035 852.660 C 407.587 852.198, 405.782 853.910, 404.024 856.465 M 446.991 854.250 C 446.987 854.938, 446.315 861.125, 445.500 868 C 443.325 886.336, 443.375 887, 446.921 887 C 450.271 887, 450.500 886.347, 451.574 873.750 C 451.938 869.487, 452.584 866, 453.010 866 C 453.436 866, 456.645 871.161, 460.142 877.469 C 465.348 886.861, 466.994 889.048, 469.226 889.543 C 470.725 889.876, 472.358 889.897, 472.855 889.589 C 473.579 889.142, 476.500 863.024, 476.500 857 C 476.500 856.001, 475.501 855.500, 473.512 855.500 C 470.239 855.500, 470.442 854.896, 468.559 870.264 C 468.171 873.433, 467.473 875.792, 467.009 875.506 C 466.546 875.219, 463.409 870.038, 460.040 863.992 C 454.084 853.304, 453.819 853, 450.457 853 C 448.363 853, 446.997 853.493, 446.991 854.250 M 505.627 872.433 C 502.532 881.471, 500 889.375, 500 889.996 C 500 890.665, 501.294 890.999, 503.167 890.813 C 505.785 890.554, 506.537 889.893, 507.503 887 L 508.672 883.500 515.868 883.206 L 523.065 882.911 524.546 886.456 C 525.840 889.554, 526.466 890, 529.513 890 C 531.431 890, 533 889.779, 533 889.508 C 533 889.237, 530.568 883.275, 527.595 876.258 C 524.622 869.241, 521.495 861.813, 520.646 859.750 C 519.232 856.316, 518.771 856, 515.178 856 L 511.255 856 505.627 872.433 M 512.683 870.338 C 511.757 873.274, 511 875.974, 511 876.338 C 511 876.702, 513.074 877, 515.608 877 C 519.923 877, 520.180 876.853, 519.637 874.692 C 518.636 870.702, 516.007 865, 515.169 865 C 514.727 865, 513.608 867.402, 512.683 870.338" stroke="none" fill="#f37021" fill-rule="evenodd"/>
</svg>